# xmcd
#
# Track frame offsets:
#	150
#	11073
#	23989
#	36007
#	46810
#	58400
#	70260
#	81329
#	92612
#	102455
#	113640
#	123835
#	132935
#	144480
#	155068
#	163433
#	174678
#	185038
#	193193
#	205226
#	213696
#	226326
#	237039
#	248682
#	258630
#	268419
#	277084
#	288224
#
# Disc length: 3962 seconds
#
# Revision: 0
# Processed by: cddbd v1.5.2PL0 Copyright (c) Steve Scherf et al.
# Submitted via: EasyCDDAExtractor 16.0.1.1
#
DISCID=b20f781c
DTITLE=VA_ - Hillbilly Boogie and Rock-A-Billy and Bop Baby Bop
DYEAR=1900
DGENRE=Hillbilly
TTITLE0=Curley Langey - Rockin' An' A Rollin'
TTITLE1=Curley Langley - Linda Lou
TTITLE2=Jimmy Swan and His Range Riders - Friflin' On Me
TTITLE3=Lucky'' Joe Almond and His Hillbilly Rockers - Hickory Nut Boogie
TTITLE4=Lucky'' Joe Almond and His Hillbilly Rockers - Gonna Roll And Rock
TTITLE5=Lucky'' Joe Almond and His Hillbilly Rockers - Rock Me
TTITLE6=Lucky'' Joe Almond and His Hillbilly Rockers - The Last Waltz
TTITLE7=Chuck Bowers - Pinball Boogie
TTITLE8=Eddie and Chuck - Boogie The Blues
TTITLE9=Howard Perkins - Lovin' Baby
TTITLE10=Howard Perkins - It's A Crying Shame
TTITLE11=Art Buchanan - Time Will Tell
TTITLE12=Hank The Crowhand - Popcorn Boogie
TTITLE13=Jimmy Dawson - It Took An Older Woman
TTITLE14=Johnny Tate - Bop With Me Baby
TTITLE15=Buck Trail - The Knocked-Out Joint On Mars
TTITLE16=Buck Trail - Honky Tonk On 2nd Street
TTITLE17=Buck Trail - The Blues Keep Knockin'
TTITLE18=Ray Moore - Honey Hush
TTITLE19=Bill Carter - Cool Tom Cat
TTITLE20=Jim Alley and The Alley Cats - The Great Pretender
TTITLE21=Tommy Cassell - Go Ahead On
TTITLE22=Tommy Cassell - Rockin' Rock And A Rollin' Stone
TTITLE23=Ray Pennington - My Steady Baby
TTITLE24=Wayne McGinnis - Rock  Roll And Rhythm
TTITLE25=Wayne McGinnis - Lonesome Rhythm Blues
TTITLE26=Ernie Nowlin - Tally Ho
TTITLE27=Jack Tucker - Lonely Man
EXTD=
EXTT0=
EXTT1=
EXTT2=
EXTT3=
EXTT4=
EXTT5=
EXTT6=
EXTT7=
EXTT8=
EXTT9=
EXTT10=
EXTT11=
EXTT12=
EXTT13=
EXTT14=
EXTT15=
EXTT16=
EXTT17=
EXTT18=
EXTT19=
EXTT20=
EXTT21=
EXTT22=
EXTT23=
EXTT24=
EXTT25=
EXTT26=
EXTT27=
PLAYORDER=
